<?xml version="1.0" encoding="iso-8859-1"?>
<!-- Generator: Adobe Illustrator 17.1.0, SVG Export Plug-In . SVG Version: 6.00 Build 0)  -->
<!DOCTYPE svg PUBLIC "-//W3C//DTD SVG 1.1//EN" "http://www.w3.org/Graphics/SVG/1.1/DTD/svg11.dtd">
<svg version="1.1" id="Capa_1" xmlns="http://www.w3.org/2000/svg" xmlns:xlink="http://www.w3.org/1999/xlink" x="0px" y="0px"
	 viewBox="0 0 178.133 178.133" style="enable-background:new 0 0 178.133 178.133;" xml:space="preserve">
<path d="M166.113,84.29l-58.046-31.462V18.11c0-10.138-7.94-17.885-18.68-18.105L89.067,0v0.004c-11,0.201-20,8.29-20,18.106v35.26
	L12.022,84.289c-1.74,0.941-2.955,3.06-2.955,5.15v9.523c0,2.287,1.754,4.079,3.994,4.079c0.347,0,0.699-0.043,1.048-0.129
	l54.958-13.566v61.65l-14.468,11.895c-1.422,1.163-1.532,3.025-1.532,3.569v8.402c0,1.865,1.323,3.271,3.077,3.271
	c0.295,0,0.595-0.042,0.894-0.123l32.029-8.759l32.031,8.759c0.297,0.081,0.598,0.123,0.893,0.123c1.754,0,3.077-1.406,3.077-3.271
	v-8.402c0-0.543-0.11-2.406-1.527-3.564l-15.473-12.722V89.099l55.961,13.814c0.346,0.085,0.698,0.128,1.045,0.128
	c2.239,0,3.994-1.792,3.994-4.079v-9.523C169.067,87.349,167.851,85.23,166.113,84.29z"/>
<g>
</g>
<g>
</g>
<g>
</g>
<g>
</g>
<g>
</g>
<g>
</g>
<g>
</g>
<g>
</g>
<g>
</g>
<g>
</g>
<g>
</g>
<g>
</g>
<g>
</g>
<g>
</g>
<g>
</g>
</svg>
