<?xml version="1.0" encoding="iso-8859-1"?>
<!-- Generator: Adobe Illustrator 17.1.0, SVG Export Plug-In . SVG Version: 6.00 Build 0)  -->
<!DOCTYPE svg PUBLIC "-//W3C//DTD SVG 1.1//EN" "http://www.w3.org/Graphics/SVG/1.1/DTD/svg11.dtd">
<svg version="1.1" id="Capa_1" xmlns="http://www.w3.org/2000/svg" xmlns:xlink="http://www.w3.org/1999/xlink" x="0px" y="0px"
	 viewBox="0 0 180.134 180.134" style="enable-background:new 0 0 180.134 180.134;" xml:space="preserve">
<path d="M164.221,94.237L152.859,85.8c0.003-0.343,0.002-0.689-0.003-1.04c-0.443-32.43-4.264-36.802-7.974-36.802
	c-3.378,0-6.589,3.427-7.616,26.263l-7.888-5.857c-0.836-26.611-4.38-30.406-7.829-30.406c-2.998,0-5.863,2.7-7.189,19.254
	l-6.175-4.586c0.919-14.347,1.44-24.236,1.45-24.419l0.003-0.131C109.638,18.215,101.993,0,91.099,0h-0.493
	C79.712,0,72.067,18.215,72.067,28.076l0.003,0.131c0.01,0.182,0.521,9.886,1.424,24.01l-7.329,5.396
	c-1.312-16.911-4.204-19.655-7.25-19.655c-3.437,0-6.995,3.821-7.811,30.742l-7.864,5.789C42.226,51.409,39,47.958,35.582,47.958
	c-3.68,0-7.5,4.372-7.943,36.801c-0.006,0.411-0.005,0.815,0,1.215l-11.221,8.26c-1.416,1.047-2.85,3.169-2.85,5.198v6.913
	c0,2.287,1.857,4.078,4.229,4.078c0.356,0,0.713-0.043,1.059-0.128l56.788-13.944c0.365-0.09,0.709-0.238,1.042-0.409
	c0.03,0.352,0.058,0.704,0.088,1.056c1.69,19.999,3.411,35.946,5.117,47.396c0.044,0.296,0.088,0.576,0.131,0.865l-24.655,20.101
	c-0.896,0.733-1.8,2.122-1.8,3.568v7.933c0,1.804,1.49,3.271,3.323,3.271c0.306,0,0.611-0.041,0.907-0.122l30.77-8.377l30.769,8.377
	c0.296,0.081,0.602,0.122,0.907,0.122c1.833,0,3.323-1.468,3.323-3.271v-7.933c0-1.446-0.904-2.835-1.804-3.571l-24.143-19.683
	c0.065-0.422,0.129-0.842,0.194-1.28c1.706-11.45,3.427-27.397,5.117-47.396c0.021-0.244,0.041-0.489,0.061-0.733
	c0.083,0.026,0.161,0.064,0.246,0.085l56.538,13.944c0.347,0.085,0.693,0.128,1.031,0.128c2.178,0,3.758-1.715,3.758-4.078v-6.913
	C166.567,97.836,165.952,95.517,164.221,94.237z M102.651,32.815c-0.064,1.265-0.99,1.737-1.567,0.244
	C98.987,27.634,95.271,23,91.035,23H90.67c-4.162,0-7.822,4.503-9.938,9.822c-0.63,1.584-1.626,0.869-1.692-0.455
	c-0.151-3.018-0.231-4.644-0.231-4.644C78.809,21.173,84.12,9,90.67,9h0.365c6.551,0,11.861,12.306,11.861,18.857
	C102.896,27.857,102.812,29.626,102.651,32.815z"/>
<g>
</g>
<g>
</g>
<g>
</g>
<g>
</g>
<g>
</g>
<g>
</g>
<g>
</g>
<g>
</g>
<g>
</g>
<g>
</g>
<g>
</g>
<g>
</g>
<g>
</g>
<g>
</g>
<g>
</g>
</svg>
