<?xml version="1.0" encoding="iso-8859-1"?>
<!-- Generator: Adobe Illustrator 17.1.0, SVG Export Plug-In . SVG Version: 6.00 Build 0)  -->
<!DOCTYPE svg PUBLIC "-//W3C//DTD SVG 1.1//EN" "http://www.w3.org/Graphics/SVG/1.1/DTD/svg11.dtd">
<svg version="1.1" id="Capa_1" xmlns="http://www.w3.org/2000/svg" xmlns:xlink="http://www.w3.org/1999/xlink" x="0px" y="0px"
	 viewBox="0 0 172 172" style="enable-background:new 0 0 172 172;" xml:space="preserve">
<g>
	<path d="M86.436,17.642C86.49,17.641,86.382,17.641,86.436,17.642L86.436,17.642z"/>
	<path d="M161.312,50.576l-55.211,1.652c-0.03-13.245-0.058-24.631-0.058-24.631c0-9.106-8.673-27.155-19.237-27.589L86.5,0v0.008
		c-10,0.424-20.415,17.703-20.415,27.582c0,0-0.055,11.382-0.112,24.618l-54.649-1.63l-0.136-0.002
		c-2.542,0-4.688,2.034-4.688,4.441V66.93c0,2.303,1.915,4.365,3.771,5.029l55.725,19.886c1.01,16.114,7.117,43.017,10.626,57.464
		c-0.324,0.085-0.638,0.182-0.91,0.301l-16.549,7.2c-1.282,0.562-2.663,1.957-2.663,3.691v8c0,2.253,2.365,3.5,4,3.5h51
		c0.825,0,1.582-0.304,2.129-0.856c0.883-0.888,0.871-2,0.871-2.535V160.5c0-1.721-0.811-3.101-2.156-3.686l-16.304-7.207
		c-0.201-0.087-0.425-0.168-0.661-0.24c3.49-14.339,9.563-41.031,10.626-57.175l56.227-20.234c1.954-0.7,3.268-2.72,3.268-5.028
		V55.017C165.5,52.485,163.699,50.576,161.312,50.576z M86.598,9.834c-0.054,0-0.109,0.006-0.163,0.008
		c-0.054-0.001-0.108-0.008-0.162-0.008H86.598z M100.413,31.436c0,0-0.21,0.522-0.336,0.065
		c-1.638-5.964-7.523-13.721-13.642-13.859c-6.128,0.138-12.63,7.9-14.457,13.863c-0.15,0.491-0.393-0.131-0.393-0.131l-0.115-4.522
		c0-5.883,7.745-16.805,14.964-16.967c7.207,0.163,14.093,11.15,14.093,17.033L100.413,31.436z"/>
</g>
<g>
</g>
<g>
</g>
<g>
</g>
<g>
</g>
<g>
</g>
<g>
</g>
<g>
</g>
<g>
</g>
<g>
</g>
<g>
</g>
<g>
</g>
<g>
</g>
<g>
</g>
<g>
</g>
<g>
</g>
</svg>
