<?xml version="1.0" encoding="iso-8859-1"?>
<!-- Generator: Adobe Illustrator 17.1.0, SVG Export Plug-In . SVG Version: 6.00 Build 0)  -->
<!DOCTYPE svg PUBLIC "-//W3C//DTD SVG 1.1//EN" "http://www.w3.org/Graphics/SVG/1.1/DTD/svg11.dtd">
<svg version="1.1" id="Capa_1" xmlns="http://www.w3.org/2000/svg" xmlns:xlink="http://www.w3.org/1999/xlink" x="0px" y="0px"
	 viewBox="0 0 186 186" style="enable-background:new 0 0 186 186;" xml:space="preserve">
<path d="M167.222,96.098l-27.76-21.534c0.891-1.483,1.413-3.212,1.413-5.064c0-5.445-4.43-9.875-9.875-9.875
	c-2.741,0-5.223,1.124-7.014,2.934l-12.692-9.846c0.811-14.536,1.267-24.328,1.276-24.522l0.002-0.115
	c0-9.862-7.646-28.076-18.54-28.076H93.54C82.646,0,75,18.214,75,28.076l0.002,0.115c0.009,0.192,0.456,9.797,1.252,24.092
	l-14.486,11.14c-1.809-2.308-4.615-3.798-7.768-3.798c-5.445,0-9.875,4.43-9.875,9.875c0,2.234,0.754,4.289,2.009,5.946
	L19.283,96.094c-1.383,1.067-2.783,3.197-2.783,5.201v4.913c0,2.287,1.858,4.079,4.229,4.079c0.357,0,0.713-0.043,1.059-0.128
	l56.787-13.944c0.142-0.035,0.276-0.094,0.413-0.142c0.231,3.288,0.469,6.597,0.716,9.902c1.181,15.807,2.377,29.364,3.572,40.517
	l-22.976,18.732c-0.896,0.733-1.801,2.121-1.801,3.569v7.933c0,1.834,1.459,3.271,3.322,3.271c0,0,0,0,0,0
	c0.306,0,0.611-0.041,0.908-0.122l24.248-6.601C89.249,184.843,91.265,186,93.54,186h0.493c2.265,0,4.273-1.147,6.532-12.58
	l23.706,6.454c0.296,0.081,0.602,0.122,0.908,0.122c1.832,0,3.322-1.467,3.322-3.271v-7.933c0-1.448-0.905-2.835-1.804-3.571
	l-22.447-18.302c1.211-11.235,2.423-24.934,3.619-40.945c0.241-3.226,0.474-6.454,0.699-9.664l56.144,13.848
	c0.347,0.085,0.694,0.128,1.032,0.128c2.177,0,3.758-1.715,3.758-4.079v-4.913C169.5,99.709,168.902,97.395,167.222,96.098z
	 M105.584,32.711c-0.064,1.265-0.99,1.771-1.567,0.278C101.92,27.565,98.204,23,93.968,23h-0.365c-4.162,0-7.822,4.451-9.938,9.771
	c-0.63,1.584-1.626,0.817-1.692-0.507c-0.151-3.018-0.231-4.609-0.231-4.609C81.742,21.104,87.053,9,93.604,9h0.365
	c6.551,0,11.861,12.255,11.861,18.805C105.829,27.805,105.745,29.523,105.584,32.711z"/>
<g>
</g>
<g>
</g>
<g>
</g>
<g>
</g>
<g>
</g>
<g>
</g>
<g>
</g>
<g>
</g>
<g>
</g>
<g>
</g>
<g>
</g>
<g>
</g>
<g>
</g>
<g>
</g>
<g>
</g>
</svg>
