<?xml version="1.0" encoding="iso-8859-1"?>
<!-- Generator: Adobe Illustrator 17.1.0, SVG Export Plug-In . SVG Version: 6.00 Build 0)  -->
<!DOCTYPE svg PUBLIC "-//W3C//DTD SVG 1.1//EN" "http://www.w3.org/Graphics/SVG/1.1/DTD/svg11.dtd">
<svg version="1.1" id="Capa_1" xmlns="http://www.w3.org/2000/svg" xmlns:xlink="http://www.w3.org/1999/xlink" x="0px" y="0px"
	 viewBox="0 0 196.289 196.289" style="enable-background:new 0 0 196.289 196.289;" xml:space="preserve">
<path d="M183.663,100.906c0-1.92,0.007-3.795,0.014-5.608c0.057-15.114-0.024-21.903-2.551-24.439c-1.419-1.424-3.771-1.424-5.189,0
	c-1.886,1.893-2.409,6.158-2.53,14.48l-13.847-2.199c-0.633-9.547-3.529-9.555-4.558-9.555c-0.975,0-3.628,0.002-4.443,8.126
	l-11.529-1.831c-0.54-10.21-3.547-10.213-4.599-10.213c-1,0-3.763,0.008-4.5,8.768l-8.785-1.395V68.5c0-2.481-2.019-4.5-4.5-4.5
	h-0.783c0.268-7.3,0.396-11.87,0.399-12.015C116.261,47.586,111.997,0,98.479,0h-0.537C84.424,0,80.161,47.586,80.162,52.055
	c0.003,0.118,0.131,4.669,0.398,11.954c-2.442,0.046-4.415,2.039-4.415,4.491v8.4l-10.75,1.703
	c-0.714-8.932-3.508-8.937-4.515-8.937c-1.058,0-4.09,0.007-4.607,10.383l-11.506,1.823c-0.795-8.284-3.476-8.288-4.458-8.288
	c-1.035,0-3.958,0.009-4.569,9.719L22.883,85.34c-0.121-8.323-0.644-12.589-2.53-14.481c-1.419-1.424-3.771-1.424-5.189,0
	c-2.527,2.536-2.608,9.325-2.551,24.439c0.007,1.813,0.014,3.688,0.014,5.608s-0.007,3.795-0.014,5.608
	c-0.057,15.114,0.024,21.903,2.551,24.439c0.709,0.712,1.631,1.104,2.595,1.104s1.885-0.393,2.595-1.104
	c1.844-1.851,2.384-5.987,2.52-13.954h60.37c1.173,17.299,2.494,31.173,3.932,41.242c0.037,0.259,0.074,0.505,0.111,0.758h-1.729
	c-1.125,0-2.659,0.425-3.583,1.611L70.32,175.485c-0.74,0.947-1.15,2.377-1.021,3.558l1.578,14.511
	c0.173,1.585,1.379,2.735,2.868,2.735c0.801,0,1.583-0.342,2.202-0.963l12.491-12.517c0.028-0.015,0.065-0.03,0.096-0.04
	l18.218-0.055c0.027,0.01,0.061,0.023,0.087,0.036l12.594,12.571c0.617,0.616,1.396,0.955,2.194,0.956h0
	c1.492,0,2.7-1.153,2.873-2.743l1.578-14.528c0.128-1.181-0.273-2.563-1.025-3.525l-11.647-14.864
	c-0.929-1.192-2.462-1.617-3.588-1.617h-0.683c0.037-0.253,0.074-0.499,0.111-0.758c1.438-10.069,2.759-23.943,3.931-41.242h60.238
	c0.136,7.967,0.675,12.103,2.52,13.954c0.709,0.712,1.631,1.104,2.595,1.104s1.885-0.393,2.595-1.104
	c2.527-2.536,2.608-9.325,2.551-24.439C183.669,104.701,183.663,102.826,183.663,100.906z"/>
<g>
</g>
<g>
</g>
<g>
</g>
<g>
</g>
<g>
</g>
<g>
</g>
<g>
</g>
<g>
</g>
<g>
</g>
<g>
</g>
<g>
</g>
<g>
</g>
<g>
</g>
<g>
</g>
<g>
</g>
</svg>
