<?xml version="1.0" encoding="iso-8859-1"?>
<!-- Generator: Adobe Illustrator 17.1.0, SVG Export Plug-In . SVG Version: 6.00 Build 0)  -->
<!DOCTYPE svg PUBLIC "-//W3C//DTD SVG 1.1//EN" "http://www.w3.org/Graphics/SVG/1.1/DTD/svg11.dtd">
<svg version="1.1" id="Capa_1" xmlns="http://www.w3.org/2000/svg" xmlns:xlink="http://www.w3.org/1999/xlink" x="0px" y="0px"
	 viewBox="0 0 176 176" style="enable-background:new 0 0 176 176;" xml:space="preserve">
<path d="M136.5,54.649V47.5c0-1.93-1.57-3.5-3.5-3.5h-13c-1.93,0-3.5,1.57-3.5,3.5v3.833c-3.288-0.373-6.445-0.662-9.36-0.886
	c0.604-13.248,0.924-22.149,0.932-22.371c0-9.862-7.646-28.076-18.54-28.076H89.04C78.146,0,70.5,18.214,70.501,28.165
	c0.006,0.178,0.323,8.967,0.921,22.091c-2.709,0.177-5.352,0.387-7.923,0.632V47.5c0-1.93-1.57-3.5-3.5-3.5H47
	c-1.93,0-3.5,1.57-3.5,3.5v6.253c-4.378,0.883-8.394,1.897-11.98,3.04c-14.058,4.48-21.186,10.705-21.186,18.501
	c0,5.093,3.129,8.551,9.301,10.276c5.444,1.521,13.202,1.731,20.774,1.731c3.256,0,6.725-0.044,10.396-0.092
	c4.133-0.053,8.406-0.108,12.915-0.108c3.409,0,6.594,0.034,9.624,0.1c0.269,4.541,0.555,9.149,0.859,13.751
	c1.24,18.756,2.55,34.134,3.903,45.823c-0.736-0.006-1.462-0.012-2.164-0.018c-1.535-0.014-2.985-0.027-4.333-0.027
	c-6.358,0-12.934,0-12.934,4.717c0,4.856,10.244,11.344,22.068,13.189C82.832,174.96,84.804,176,87.04,176h4.493
	c2.24,0,4.215-1.045,6.306-11.421c11.545-1.926,21.485-8.323,21.485-13.109c0-4.672-6.461-4.649-12.709-4.649
	c-1.205,0-2.494,0.055-3.854,0.066c-0.75,0.006-1.523,0.034-2.315,0.061c1.36-11.71,2.678-27.145,3.924-45.994
	c0.303-4.585,0.589-9.177,0.856-13.703c1.102-0.007,2.223-0.012,3.375-0.012c5.139,0,9.996,0.072,14.693,0.142
	c4.136,0.062,8.042,0.119,11.683,0.119c16.173,0,30.69-0.934,30.69-12.205C165.667,64.51,152.111,58.265,136.5,54.649z"/>
<g>
</g>
<g>
</g>
<g>
</g>
<g>
</g>
<g>
</g>
<g>
</g>
<g>
</g>
<g>
</g>
<g>
</g>
<g>
</g>
<g>
</g>
<g>
</g>
<g>
</g>
<g>
</g>
<g>
</g>
</svg>
