<?xml version="1.0" encoding="iso-8859-1"?>
<!-- Generator: Adobe Illustrator 17.1.0, SVG Export Plug-In . SVG Version: 6.00 Build 0)  -->
<!DOCTYPE svg PUBLIC "-//W3C//DTD SVG 1.1//EN" "http://www.w3.org/Graphics/SVG/1.1/DTD/svg11.dtd">
<svg version="1.1" id="Capa_1" xmlns="http://www.w3.org/2000/svg" xmlns:xlink="http://www.w3.org/1999/xlink" x="0px" y="0px"
	 viewBox="0 0 186.133 186.133" style="enable-background:new 0 0 186.133 186.133;" xml:space="preserve">
<g>
	<path style="fill:#FFFFFF;" d="M93.34,9.472c0.054,0,0.108,0.006,0.162,0.008c0.054-0.001,0.109-0.008,0.163-0.008H93.34z"/>
</g>
<g>
	<path d="M93.502,17.28C93.556,17.279,93.448,17.279,93.502,17.28L93.502,17.28z"/>
	<path d="M166.775,92.285l-54.423-29.584l0.758-35.105c0-9.106-8.673-27.155-19.237-27.589L93.567,0v0.008
		c-10,0.424-20.415,17.703-20.414,27.642l0.735,35.522l-54.025,29.11c-1.598,0.865-3.296,2.964-3.296,5.15v8.913
		c0,2.287,1.858,4.079,4.229,4.079c0.357,0,0.713-0.043,1.059-0.128l52.74-12.951l1.27,61.38l-15.497,12.635
		c-0.896,0.733-1.801,2.121-1.801,3.569v7.933c0,1.834,1.459,3.271,3.322,3.271c0.307,0,0.613-0.042,0.909-0.122l30.77-8.376
		l30.768,8.376c0.297,0.082,0.604,0.123,0.91,0.123c1.863,0,3.322-1.437,3.322-3.271v-7.933c0-1.448-0.904-2.835-1.804-3.571
		l-16.467-13.426l1.311-60.751l53.17,13.114c0.347,0.085,0.693,0.128,1.031,0.128c2.178,0,3.758-1.715,3.758-4.079v-8.913
		C169.567,95.623,168.701,93.328,166.775,92.285z M107.479,31.074c0,0-0.21,0.522-0.336,0.065
		c-1.638-5.964-7.523-13.721-13.642-13.859c-6.128,0.138-12.63,7.9-14.457,13.863c-0.15,0.491-0.393-0.131-0.393-0.131l-0.115-4.522
		c0-5.883,7.745-16.805,14.964-16.967c7.207,0.163,14.093,11.15,14.093,17.033L107.479,31.074z"/>
</g>
<g>
</g>
<g>
</g>
<g>
</g>
<g>
</g>
<g>
</g>
<g>
</g>
<g>
</g>
<g>
</g>
<g>
</g>
<g>
</g>
<g>
</g>
<g>
</g>
<g>
</g>
<g>
</g>
<g>
</g>
</svg>
