<?xml version="1.0" encoding="iso-8859-1"?>
<!-- Generator: Adobe Illustrator 17.1.0, SVG Export Plug-In . SVG Version: 6.00 Build 0)  -->
<!DOCTYPE svg PUBLIC "-//W3C//DTD SVG 1.1//EN" "http://www.w3.org/Graphics/SVG/1.1/DTD/svg11.dtd">
<svg version="1.1" id="Capa_1" xmlns="http://www.w3.org/2000/svg" xmlns:xlink="http://www.w3.org/1999/xlink" x="0px" y="0px"
	 viewBox="0 0 190 190" style="enable-background:new 0 0 190 190;" xml:space="preserve">
<path d="M172.34,78c-0.002,0-0.004,0-0.005,0L169,77.87v-5.4c0-3.799-2.515-7.022-6-8.092v-2.751c10.995-0.198,11-1.691,11-2.355
	c0-0.712,0-2.378-13.553-2.378s-13.553,1.666-13.553,2.378c0,0.646,0.001,2.075,10.105,2.337v3.144c-2.943,1.329-5,4.285-5,7.718
	v4.736l-15-0.586v-4.15c0-3.424-2.046-6.373-5-7.707v-3.141c10.763-0.215,10.771-1.692,10.771-2.351c0-0.712,0-2.378-13.553-2.378
	c-13.552,0-13.552,1.666-13.552,2.378c0,0.65,0.006,2.096,10.333,2.341v2.757c-3.469,1.06-6,4.289-6,8.1v3.486l-9.528-0.372
	c0.238-13.07,0.364-22.209,0.366-22.391C110.838,52.66,110.188,0,95.737,0h-0.548C80.738,0,80.089,52.66,80.089,53.226
	c0.002,0.163,0.126,9.291,0.361,22.353L71,75.943V72.47c0-3.799-2.515-7.022-6-8.092v-2.751c10.995-0.198,11-1.691,11-2.355
	c0-0.712,0-2.378-13.553-2.378s-13.553,1.666-13.553,2.378c0,0.646,0.001,2.075,10.105,2.337v3.144c-2.943,1.329-5,4.285-5,7.718
	v4.13l-15,0.579v-4.71c0-3.424-2.046-6.373-5-7.707v-3.141c10.763-0.215,10.771-1.692,10.771-2.351c0-0.712,0-2.378-13.553-2.378
	c-13.552,0-13.552,1.666-13.552,2.378c0,0.65,0.006,2.096,10.333,2.341v2.757c-3.469,1.06-6,4.289-6,8.1v5.367L17.763,78
	C5.341,78,4,85.526,4,88.763v0.475C4,96.826,10.174,103,17.763,103h63.245c0.071,3.117,0.147,6.264,0.226,9.409
	c0.435,17.192,0.897,30.895,1.377,40.728c0.105,2.145,0.211,4.109,0.318,5.896l-27.886,5.441c-2.827,0.568-5.042,3.223-5.042,6.043
	v5.63c0,3.063,2.711,5.854,5.688,5.854h31.335c0.246,4.451,3.935,8,8.446,8h0.061c4.511,0,8.2-3.549,8.446-8h31.262
	c3.016,0,5.762-2.79,5.762-5.854v-5.63c0-2.764-2.229-5.38-5.084-5.957l-27.926-5.553c0.106-1.78,0.211-3.736,0.315-5.871
	c0.479-9.832,0.941-23.534,1.378-40.727c0.08-3.145,0.155-6.292,0.227-9.409h62.327C179.826,103,186,96.826,186,89.237v-0.475
	C186,85.527,184.659,78,172.34,78z"/>
<g>
</g>
<g>
</g>
<g>
</g>
<g>
</g>
<g>
</g>
<g>
</g>
<g>
</g>
<g>
</g>
<g>
</g>
<g>
</g>
<g>
</g>
<g>
</g>
<g>
</g>
<g>
</g>
<g>
</g>
</svg>
