<?xml version="1.0" encoding="iso-8859-1"?>
<!-- Generator: Adobe Illustrator 17.1.0, SVG Export Plug-In . SVG Version: 6.00 Build 0)  -->
<!DOCTYPE svg PUBLIC "-//W3C//DTD SVG 1.1//EN" "http://www.w3.org/Graphics/SVG/1.1/DTD/svg11.dtd">
<svg version="1.1" id="Capa_1" xmlns="http://www.w3.org/2000/svg" xmlns:xlink="http://www.w3.org/1999/xlink" x="0px" y="0px"
	 viewBox="0 0 182 182" style="enable-background:new 0 0 182 182;" xml:space="preserve">
<path d="M170.122,81.41L142.5,72.415V65.5c0-3.584-2.916-6.5-6.5-6.5h-6c-3.584,0-6.5,2.916-6.5,6.5v0.727l-16.938-5.516
	c0.281-4.464,0.465-7.142,0.473-7.257l0.006-0.173C107.041,52.748,106.392,0,91.94,0h-0.548c-14.451,0-15.1,52.704-15.1,53.236
	l0.006,0.178c0.008,0.111,0.192,2.725,0.471,7.11L59.5,66.123V65.5c0-3.584-2.916-6.5-6.5-6.5h-6c-3.584,0-6.5,2.916-6.5,6.5v6.783
	l-28.152,9.126C10.457,82.024,8.5,84.061,8.5,86.405v6.487c0,2.458,2.276,4.535,4.875,4.396l65.217-3.313
	c0.645,14.355,1.175,30.434,1.175,44.544c0,6.024,0.782,13.485,2.101,20.32l-20.697,5.644c-2.662,0.737-4.669,3.407-4.669,6.21v5.63
	c0,3.13,2.418,5.677,5.392,5.677h59.55c2.884,0,5.058-2.44,5.058-5.677v-5.63c0-2.846-1.891-5.44-4.494-6.168l-20.417-5.719
	c-0.039-0.011-0.086-0.02-0.126-0.031c1.288-6.719,2.05-14.014,2.05-19.896c0-13.775,0.561-30.158,1.235-44.875l64.347,3.283
	c0.077,0.004,0.161,0.011,0.228,0.006c1.239,0,2.353-0.51,3.136-1.436c0.672-0.793,1.042-1.846,1.042-2.966v-6.487
	C173.5,84.11,172.11,82.056,170.122,81.41z"/>
<g>
</g>
<g>
</g>
<g>
</g>
<g>
</g>
<g>
</g>
<g>
</g>
<g>
</g>
<g>
</g>
<g>
</g>
<g>
</g>
<g>
</g>
<g>
</g>
<g>
</g>
<g>
</g>
<g>
</g>
</svg>
