<?xml version="1.0" encoding="iso-8859-1"?>
<!-- Generator: Adobe Illustrator 17.1.0, SVG Export Plug-In . SVG Version: 6.00 Build 0)  -->
<!DOCTYPE svg PUBLIC "-//W3C//DTD SVG 1.1//EN" "http://www.w3.org/Graphics/SVG/1.1/DTD/svg11.dtd">
<svg version="1.1" id="Capa_1" xmlns="http://www.w3.org/2000/svg" xmlns:xlink="http://www.w3.org/1999/xlink" x="0px" y="0px"
	 viewBox="0 0 186.214 186.214" style="enable-background:new 0 0 186.214 186.214;" xml:space="preserve">
<path d="M171.485,104.327l-26.04-19.089c1.138-1.565,1.821-3.483,1.821-5.561c0-5.23-4.254-9.485-9.484-9.485
	c-2.591,0-4.941,1.047-6.654,2.737c0.655-1.288,1.032-2.74,1.032-4.281c0-5.23-4.255-9.485-9.486-9.485
	c-3.105,0-5.685,1.507-7.417,3.82l-10.151-7.566V23.962c0-4.575-4.23-23.962-12-23.962s-12,19.387-12,23.962v31.454L70.39,63.397
	c-1.702-2.55-4.517-4.235-7.807-4.235c-5.23,0-9.443,4.255-9.443,9.485c0,1.541,0.399,2.993,1.054,4.281
	c-1.714-1.69-4.053-2.737-6.644-2.737c-5.23,0-9.48,4.255-9.48,9.485c0,2.262,0.801,4.341,2.128,5.973l-25.47,18.677
	c-1.527,1.12-2.621,3.307-2.621,5.199v13.6c0,2.167,1.522,3.802,3.56,3.802c0.615,0,1.224-0.149,1.821-0.444l49.016-23.963
	c0.641-0.316,1.968-0.396,2.683-0.396h11.921v56.479c0,0.013,0.176,0.032,0.176,0.046c-0.143,0.146-0.19,0.293-0.302,0.437
	l-7.97,10.375c-0.733,0.938-1.131,2.437-1,3.641l1.083,9.896c0.172,1.594,1.388,2.751,2.883,2.751c0.799,0,1.58-0.339,2.193-0.954
	l8.554-8.597c0.028-0.014,0.065-0.074,0.095-0.074h0.024c3.404,10,4.507,10.089,6.263,10.089c1.781,0,2.896-0.461,6.287-10.02
	l8.567,8.609c0.617,0.616,1.147,0.96,2.147,0.961v0.002c2,0,2.748-1.152,2.921-2.742l1.096-9.872
	c0.131-1.212-0.287-2.763-1.002-3.68l-8.022-10.394c-0.102-0.131-0.045-0.264-0.174-0.397c0.001-0.024,0.181-0.054,0.181-0.075
	v-56.479h11.921c0.715,0,2.045,0.079,2.687,0.396l49.017,24.077c0.598,0.296,1.2,0.387,1.815,0.387c2.037,0,3.56-1.693,3.56-3.86
	v-13.6C174.107,107.634,173.012,105.447,171.485,104.327z"/>
<g>
</g>
<g>
</g>
<g>
</g>
<g>
</g>
<g>
</g>
<g>
</g>
<g>
</g>
<g>
</g>
<g>
</g>
<g>
</g>
<g>
</g>
<g>
</g>
<g>
</g>
<g>
</g>
<g>
</g>
</svg>
