<?xml version="1.0" encoding="iso-8859-1"?>
<!-- Generator: Adobe Illustrator 17.1.0, SVG Export Plug-In . SVG Version: 6.00 Build 0)  -->
<!DOCTYPE svg PUBLIC "-//W3C//DTD SVG 1.1//EN" "http://www.w3.org/Graphics/SVG/1.1/DTD/svg11.dtd">
<svg version="1.1" id="Capa_1" xmlns="http://www.w3.org/2000/svg" xmlns:xlink="http://www.w3.org/1999/xlink" x="0px" y="0px"
	 viewBox="0 0 179.891 179.891" style="enable-background:new 0 0 179.891 179.891;" xml:space="preserve">
<g>
	<path style="fill:#FFFFFF;" d="M91.156,9.144c0.05,0,0.099,0.006,0.149,0.007c0.05-0.001,0.1-0.007,0.15-0.007H91.156z"/>
</g>
<path d="M158.053,94.132l-50.716-36.009l1.246-23.103l0.023-0.134c0-7.966-7.594-34.3-17.88-34.876L90.445,0v0.01
	c-10,0.569-18.962,26.803-18.962,34.876l1.264,23.795L22.342,94.129c-1.44,1.017-2.897,3.128-2.897,5.196v7.866
	c0,2.287,1.858,4.079,4.229,4.079c0.356,0,0.713-0.043,1.06-0.128l50.144-12.322l2.52,47.457l-17.726,19.961
	c-0.906,1.017-1.227,2.472-1.227,3.41v7.127c0,1.777,1.253,3.117,2.916,3.117c0.555,0,1.1-0.153,1.62-0.454l27.465-15.88
	l27.464,15.88c0.521,0.301,1.065,0.454,1.621,0.454c1.662,0,2.915-1.34,2.915-3.117v-7.127c0-0.938-0.321-2.395-1.225-3.407
	l-18.586-20.929l2.516-46.64l50.506,12.471c0.347,0.085,0.693,0.128,1.031,0.128c2.178,0,3.758-1.715,3.758-4.079v-7.866
	C160.445,97.708,159.817,95.378,158.053,94.132z M104.149,34.508c0,0-0.193,0.48-0.308,0.06
	c-1.505-5.481-6.913-18.122-12.535-18.249C85.674,16.446,79.7,29.092,78.021,34.572c-0.138,0.451-0.361-0.12-0.361-0.12
	l-0.106-4.155c0-5.406,7.117-20.956,13.751-21.105c6.622,0.15,12.951,15.76,12.951,21.166L104.149,34.508z"/>
<g>
	<path d="M158.445,117.227c0,1.1-0.703,1.438-1.562,0.751l-16.877-13.501c-0.859-0.687-1.562-2.149-1.562-3.249v-2
		c0-1.1,0.9-2.227,2-2.227h16c1.1,0,2,1.127,2,2.227V117.227z"/>
</g>
<g>
	<path d="M157.386,120.833c-0.786,0-1.565-0.305-2.314-0.905l-16.994-13.494c-1.312-1.05-2.632-3.172-2.632-5.208v-2
		c0-2.646,2.542-4.227,5-4.227h16c2.43,0,4,1.659,4,4.227v18C160.445,119.705,158.859,120.833,157.386,120.833z M140.445,100v1.227
		c0.02,0.292,0.417,1.032,0.749,1.298l14.249,11.315L155.445,100H140.445z"/>
</g>
<g>
	<path d="M22.445,117.227c0,1.1,0.703,1.438,1.562,0.751l16.877-13.501c0.859-0.687,1.562-2.149,1.562-3.249v-2
		c0-1.1-0.9-2.227-2-2.227h-16c-1.1,0-2,1.127-2,2.227V117.227z"/>
</g>
<g>
	<path d="M22.863,120.833L22.863,120.833c-1.948,0-3.417-1.551-3.417-3.607v-18c0-2.646,2.542-4.227,5-4.227h16
		c2.43,0,4,1.659,4,4.227v2c0,1.59-0.743,3.896-2.375,5.202l-16.745,13.495C24.58,120.521,23.73,120.833,22.863,120.833z
		 M24.445,100v14.211L38.94,102.53c0.193-0.168,0.505-0.844,0.505-1.303V100H24.445z"/>
</g>
<g>
</g>
<g>
</g>
<g>
</g>
<g>
</g>
<g>
</g>
<g>
</g>
<g>
</g>
<g>
</g>
<g>
</g>
<g>
</g>
<g>
</g>
<g>
</g>
<g>
</g>
<g>
</g>
<g>
</g>
</svg>
