<?xml version="1.0" encoding="iso-8859-1"?>
<!-- Generator: Adobe Illustrator 17.1.0, SVG Export Plug-In . SVG Version: 6.00 Build 0)  -->
<!DOCTYPE svg PUBLIC "-//W3C//DTD SVG 1.1//EN" "http://www.w3.org/Graphics/SVG/1.1/DTD/svg11.dtd">
<svg version="1.1" id="Capa_1" xmlns="http://www.w3.org/2000/svg" xmlns:xlink="http://www.w3.org/1999/xlink" x="0px" y="0px"
	 viewBox="0 0 193.391 193.391" style="enable-background:new 0 0 193.391 193.391;" xml:space="preserve">
<path d="M177.359,67.78L177.359,67.78l-41.664,0.772v-6.093c3.089-0.093,5.928-0.271,8.259-0.527
	c5.317-0.583,6.325-1.305,6.325-2.434c0-1.128-1.008-1.85-6.325-2.434c-3.539-0.389-8.237-0.603-13.228-0.603
	s-9.688,0.214-13.228,0.603c-5.317,0.584-6.325,1.306-6.325,2.434c0,1.129,1.008,1.851,6.325,2.434
	c2.315,0.254,5.131,0.432,8.196,0.526v6.28l-18,0.333v-51.98c0-9.228-5.686-16.847-12.621-17.085L94.695,0v0.003
	c-6,0.176-12,7.82-12,17.088v51.925l-19-0.352v-6.205c3.089-0.093,5.928-0.271,8.259-0.527c5.317-0.583,6.325-1.305,6.325-2.434
	c0-1.128-1.008-1.85-6.325-2.434c-3.539-0.389-8.237-0.603-13.228-0.603s-9.688,0.214-13.228,0.603
	c-5.317,0.584-6.325,1.306-6.325,2.434c0,1.129,1.008,1.851,6.325,2.434c2.315,0.254,5.131,0.432,8.196,0.526v6.022L15.949,67.78
	c-2.425,0-4.254,1.918-4.254,4.463v7.526c0,2.342,1.572,4.392,3.739,4.874l38.261,8.52V99.5c0,1.93,1.57,3.5,3.5,3.5h3
	c1.93,0,3.5-1.57,3.5-3.5v-4.109l19,4.231v59.013l-18.753,21.102c-0.861,0.967-1.247,2.409-1.247,3.408v7.128
	c0,1.776,1.268,3.117,2.949,3.117c0.56,0,1.106-0.152,1.628-0.453l21.971-12.713c0.691,6.752,2.331,13.002,6.035,13.002
	c3.593,0,5.243-5.88,5.969-12.395l20.958,12.108c0.519,0.3,1.06,0.451,1.606,0.451c1.397,0,2.883-1.093,2.883-3.117v-7.128
	c0-0.948-0.315-2.409-1.202-3.405l-17.798-20.056v-59.402c0.024-0.005,0.048-0.003,0.072-0.008l17.928-3.992V99.5
	c0,1.93,1.57,3.5,3.5,3.5h3c1.93,0,3.5-1.57,3.5-3.5v-5.445l42.262-9.411c2.166-0.482,3.738-2.532,3.738-4.874v-7.526
	C181.695,69.699,179.867,67.78,177.359,67.78z"/>
<g>
</g>
<g>
</g>
<g>
</g>
<g>
</g>
<g>
</g>
<g>
</g>
<g>
</g>
<g>
</g>
<g>
</g>
<g>
</g>
<g>
</g>
<g>
</g>
<g>
</g>
<g>
</g>
<g>
</g>
</svg>
