<?xml version="1.0" encoding="iso-8859-1"?>
<!-- Generator: Adobe Illustrator 17.1.0, SVG Export Plug-In . SVG Version: 6.00 Build 0)  -->
<!DOCTYPE svg PUBLIC "-//W3C//DTD SVG 1.1//EN" "http://www.w3.org/Graphics/SVG/1.1/DTD/svg11.dtd">
<svg version="1.1" id="Capa_1" xmlns="http://www.w3.org/2000/svg" xmlns:xlink="http://www.w3.org/1999/xlink" x="0px" y="0px"
	 viewBox="0 0 186 186" style="enable-background:new 0 0 186 186;" xml:space="preserve">
<path d="M164.449,64h-28.019c-0.435-4.266-4.049-7.606-8.429-7.606c-4.379,0-7.992,3.34-8.428,7.606h-8.236
	c0.237-6.594,0.351-10.67,0.354-10.808c0-4.501-4.34-53.192-18.101-53.192h-0.548c-13.761,0-18.101,48.691-18.1,53.261
	c0.003,0.113,0.117,4.166,0.353,10.739h-8.871c-0.435-4.266-4.049-7.606-8.428-7.606c-4.379,0-7.993,3.34-8.429,7.606H21.551
	C18.542,64,16,66.591,16,69.659v20.417c0,2.901,2.298,5.429,5.233,5.755l28.311,3.113c-0.005,0.123-0.019,0.244-0.019,0.369
	c0,4.672,3.801,8.473,8.473,8.473c4.166,0,7.632-3.027,8.334-6.996l8.965,0.986c0.474,0.053,1.048,0.096,1.71,0.13
	c0.282,5.117,0.594,10.366,0.939,15.606c1.232,18.687,2.631,33.589,4.157,44.294c0.075,0.529,0.151,1.042,0.226,1.547l-19.742,5.632
	c-2.615,0.723-4.588,3.393-4.588,6.21v5.63c0,3,2.197,5.177,5.225,5.177h59.551c3.027,0,5.225-2.177,5.225-5.177v-5.63
	c0-2.859-1.969-5.565-4.566-6.29l-19.142-5.457c0.08-0.534,0.16-1.08,0.24-1.642c1.527-10.705,2.926-25.607,4.157-44.294
	c0.347-5.266,0.661-10.54,0.944-15.682c0.184-0.016,0.358-0.032,0.519-0.05l9.511-1.026c0.687,3.987,4.161,7.032,8.34,7.032
	c4.672,0,8.473-3.801,8.473-8.473c0-0.125-0.013-0.247-0.019-0.371l28.311-3.053c2.935-0.323,5.233-2.876,5.233-5.813V69.659
	C170,66.591,167.458,64,164.449,64z"/>
<g>
</g>
<g>
</g>
<g>
</g>
<g>
</g>
<g>
</g>
<g>
</g>
<g>
</g>
<g>
</g>
<g>
</g>
<g>
</g>
<g>
</g>
<g>
</g>
<g>
</g>
<g>
</g>
<g>
</g>
</svg>
