<?xml version="1.0" encoding="iso-8859-1"?>
<!-- Generator: Adobe Illustrator 17.1.0, SVG Export Plug-In . SVG Version: 6.00 Build 0)  -->
<!DOCTYPE svg PUBLIC "-//W3C//DTD SVG 1.1//EN" "http://www.w3.org/Graphics/SVG/1.1/DTD/svg11.dtd">
<svg version="1.1" id="Capa_1" xmlns="http://www.w3.org/2000/svg" xmlns:xlink="http://www.w3.org/1999/xlink" x="0px" y="0px"
	 viewBox="0 0 183.804 183.804" style="enable-background:new 0 0 183.804 183.804;" xml:space="preserve">
<path d="M166.845,98.491l-45.971-24.356c0.147-1.968,0.204-3.898,0.204-5.55c0-6.674-0.754-17.87-5.838-17.87
	c-4.95,0-5.797,10.616-5.838,17.335l-5.5-2.914V16.641c0-9.455-4.919-16.418-11.663-16.636L91.902,0v0.003
	c-6,0.158-13,6.855-13,16.638v49.026l-6.816,3.61c0.002-0.235,0.003-0.466,0.003-0.691c0-6.674-0.759-17.87-5.843-17.87
	s-5.843,11.196-5.843,17.87c0,1.979,0.068,4.357,0.295,6.721L16.959,98.49c-1.795,0.951-3.057,3.114-3.057,5.146v8.458
	c0,2.243,1.586,3.935,3.743,3.935c0.481,0,0.947-0.087,1.422-0.257l47.46-17.135C67.297,98.36,68.735,98,69.555,98h9.347v33h-1.679
	c-0.302-6.692-1.863-10.09-4.658-10.09c-3.129,0-4.715,4.247-4.715,12.622s1.586,12.622,4.715,12.622
	c2.804,0,4.365-3.421,4.66-10.154h1.677v9.662l-23.666,25.771c-0.798,0.869-1.334,2.246-1.334,3.427v5.863
	c0,1.756,1.245,3.079,2.896,3.08c0.632,0,1.264-0.208,1.824-0.598l27.183-18.878c0.612,5.24,2.082,10.126,5.44,10.126
	c3.539,0,4.981-5.425,5.531-10.974l28.402,19.724c0.563,0.392,1.194,0.6,1.827,0.6c1.651,0,2.896-1.324,2.896-3.08v-5.863
	c0-1.181-0.536-2.558-1.335-3.428l-24.665-26.86V136h1.679c0.295,6.734,1.856,10.154,4.66,10.154c3.129,0,4.715-4.247,4.715-12.622
	s-1.586-12.622-4.715-12.622c-2.795,0-4.355,3.398-4.657,10.09h-1.681V98h10.347c0.82,0,2.268,0.36,3.039,0.637l47.468,17.079
	c0.477,0.171,0.922,0.285,1.403,0.285c2.157,0,3.743-1.664,3.743-3.908v-8.458C169.902,101.604,168.64,99.441,166.845,98.491z"/>
<g>
</g>
<g>
</g>
<g>
</g>
<g>
</g>
<g>
</g>
<g>
</g>
<g>
</g>
<g>
</g>
<g>
</g>
<g>
</g>
<g>
</g>
<g>
</g>
<g>
</g>
<g>
</g>
<g>
</g>
</svg>
