<?xml version="1.0" encoding="iso-8859-1"?>
<!-- Generator: Adobe Illustrator 17.1.0, SVG Export Plug-In . SVG Version: 6.00 Build 0)  -->
<!DOCTYPE svg PUBLIC "-//W3C//DTD SVG 1.1//EN" "http://www.w3.org/Graphics/SVG/1.1/DTD/svg11.dtd">
<svg version="1.1" id="Capa_1" xmlns="http://www.w3.org/2000/svg" xmlns:xlink="http://www.w3.org/1999/xlink" x="0px" y="0px"
	 viewBox="0 0 169 169" style="enable-background:new 0 0 169 169;" xml:space="preserve">
<path d="M146.561,79.214l-7.719-5.082c0.073-0.472,0.122-0.952,0.122-1.444c0-5.23-4.255-9.486-9.486-9.486
	c-1.847,0-3.566,0.539-5.026,1.456l-0.915-0.603c0.201-0.767,0.319-1.568,0.319-2.397c0-5.23-4.255-9.485-9.486-9.485
	c-2.195,0-4.213,0.756-5.822,2.013l-6.892-4.538l1.045-31.835c0-9.634-7.959-17.578-17.892-17.808L84.5,0v0.004
	c-11,0.204-19.138,8.325-19.137,17.89l1.032,32.294l-6.141,4.049c-1.62-1.288-3.665-2.064-5.891-2.064
	c-5.23,0-9.486,4.255-9.486,9.485c0,0.863,0.126,1.696,0.343,2.491l-0.852,0.562c-1.477-0.951-3.23-1.509-5.114-1.509
	c-5.23,0-9.486,4.255-9.486,9.486c0,0.532,0.055,1.05,0.139,1.558l-7.538,4.97c-1.663,1.098-2.87,3.28-2.87,5.188v8.711
	c0,2.246,1.742,4.005,3.966,4.006c0.418,0,0.84-0.063,1.251-0.187l42.761-12.828l1.89,59.155l-17.311,14.226
	c-1.148,0.939-1.558,2.459-1.558,3.569v3.461c0,1.865,1.331,3.271,3.096,3.271c0.296,0,0.597-0.042,0.895-0.123l21.299-5.822
	l0.587,3.798C76.631,167.292,78.055,169,80,169h10c1.945,0,3.369-1.708,3.623-3.356l0.548-3.54l20.351,5.561
	c0.297,0.081,0.598,0.123,0.894,0.123c1.759,0,3.085-1.406,3.085-3.271v-3.461c0-1.112-0.408-2.633-1.547-3.564L98.61,142.415
	l1.923-58.585l43.616,13.105c0.412,0.124,0.836,0.187,1.262,0.187c2.293,0,4.09-1.76,4.09-4.006v-8.711
	C149.5,82.271,148.022,80.179,146.561,79.214z"/>
<g>
</g>
<g>
</g>
<g>
</g>
<g>
</g>
<g>
</g>
<g>
</g>
<g>
</g>
<g>
</g>
<g>
</g>
<g>
</g>
<g>
</g>
<g>
</g>
<g>
</g>
<g>
</g>
<g>
</g>
</svg>
