<?xml version="1.0" encoding="iso-8859-1"?>
<!-- Generator: Adobe Illustrator 17.1.0, SVG Export Plug-In . SVG Version: 6.00 Build 0)  -->
<!DOCTYPE svg PUBLIC "-//W3C//DTD SVG 1.1//EN" "http://www.w3.org/Graphics/SVG/1.1/DTD/svg11.dtd">
<svg version="1.1" id="Capa_1" xmlns="http://www.w3.org/2000/svg" xmlns:xlink="http://www.w3.org/1999/xlink" x="0px" y="0px"
	 viewBox="0 0 193.841 193.841" style="enable-background:new 0 0 193.841 193.841;" xml:space="preserve">
<g>
	<polygon points="96.92,0 96.913,0.003 96.92,0.003 	"/>
	<path d="M167.787,88.522L139.92,75.474v-9.346c1.9-0.986,3.392-2.723,3.904-4.774l0.978-3.639c0.434-1.731,0.126-3.385-0.866-4.655
		c-1.037-1.328-2.666-2.06-4.588-2.06h-9.443c-1.922,0-3.551,0.731-4.588,2.059c-0.992,1.271-1.301,2.924-0.856,4.699l0.956,3.554
		c0.573,2.288,2.326,4.175,4.504,5.09v4.39l-21-9.833V16.641c0-9.146-5.088-16.413-12.01-16.636l0.003-0.001
		C88.918,0.177,83.92,7.464,83.92,16.641v44.786l-19,8.897v-4.168c1.927-0.981,3.444-2.731,3.961-4.802l0.978-3.639
		c0.433-1.731,0.125-3.385-0.868-4.656C67.956,51.731,66.327,51,64.405,51h-9.444c-1.922,0-3.551,0.731-4.587,2.059
		c-0.993,1.271-1.301,2.925-0.856,4.699l0.956,3.553c0.567,2.269,2.296,4.144,4.448,5.068v8.627L26.056,88.521
		c-1.817,0.85-3.136,2.999-3.136,5.111v7.649c0,2.353,1.706,4.127,3.967,4.128h0c0.133,0,0.268-0.03,0.402-0.043
		c0.855,1.762,2.646,2.989,4.733,2.989c2.835,0,5.138-2.253,5.255-5.06l5.46-1.161c0.771,1.961,2.672,3.358,4.902,3.358
		c2.909,0,5.276-2.367,5.276-5.276c0-0.083-0.021-0.16-0.024-0.241l5.278-1.123c0.592,2.265,2.638,3.95,5.087,3.95
		c2.909,0,5.276-2.367,5.276-5.276c0-0.294-0.04-0.579-0.087-0.86l5.454-1.16c0.709,2.078,2.659,3.586,4.973,3.586
		c2.404,0,4.415-1.626,5.049-3.828v70.712L70.17,181.45c-0.864,0.969-1.25,2.41-1.25,3.41v5.863c0,2.024,1.484,3.116,2.881,3.117h0
		c0.549,0,1.091-0.153,1.606-0.451l23.462-13.506l23.362,13.504c0.513,0.296,1.084,0.453,1.651,0.453
		c1.703,0,3.037-1.369,3.037-3.117v-5.863c0-1.31-0.677-2.656-1.349-3.41l-14.651-16.425V93.16l0.821,0.175
		c-0.015,0.16-0.048,0.315-0.048,0.479c0,2.909,2.367,5.276,5.276,5.276c2.314,0,4.264-1.508,4.973-3.585l5.454,1.16
		c-0.047,0.281-0.087,0.565-0.087,0.86c0,2.909,2.367,5.276,5.276,5.276c2.448,0,4.494-1.685,5.087-3.95l5.278,1.123
		c-0.004,0.082-0.024,0.159-0.024,0.241c0,2.909,2.367,5.276,5.276,5.276c2.231,0,4.132-1.397,4.902-3.357l5.46,1.162
		c0.116,2.807,2.418,5.06,5.254,5.06c2.086,0,3.878-1.227,4.733-2.989c0.134,0.013,0.269,0.043,0.402,0.043
		c2.262,0,3.968-1.774,3.968-4.128v-7.649C170.92,91.485,169.63,89.384,167.787,88.522z"/>
</g>
<g>
</g>
<g>
</g>
<g>
</g>
<g>
</g>
<g>
</g>
<g>
</g>
<g>
</g>
<g>
</g>
<g>
</g>
<g>
</g>
<g>
</g>
<g>
</g>
<g>
</g>
<g>
</g>
<g>
</g>
</svg>
