<?xml version="1.0" encoding="iso-8859-1"?>
<!-- Generator: Adobe Illustrator 17.1.0, SVG Export Plug-In . SVG Version: 6.00 Build 0)  -->
<!DOCTYPE svg PUBLIC "-//W3C//DTD SVG 1.1//EN" "http://www.w3.org/Graphics/SVG/1.1/DTD/svg11.dtd">
<svg version="1.1" id="Capa_1" xmlns="http://www.w3.org/2000/svg" xmlns:xlink="http://www.w3.org/1999/xlink" x="0px" y="0px"
	 viewBox="0 0 186 186" style="enable-background:new 0 0 186 186;" xml:space="preserve">
<path d="M167.222,96.598l-34.75-26.957c-0.331-11.36-3.825-22.304-10.222-22.304c-3.533,0-6.181,3.343-7.899,8.247l-2.365-1.835
	c0.847-15.1,1.324-25.36,1.333-25.558l0.003-0.115C113.321,18.214,105.676,0,94.782,0h-0.493C83.396,0,75.75,18.214,75.75,28.076
	l0.003,0.115c0.009,0.192,0.454,9.768,1.248,24.025c-0.021,0.016-0.042,0.024-0.063,0.041l-3.13,2.407
	c-1.72-4.397-4.25-7.327-7.558-7.327c-6.143,0-9.61,10.096-10.168,20.958L19.283,96.594C17.9,97.661,16.5,99.79,16.5,101.795v4.913
	c0,2.287,1.857,4.079,4.229,4.079c0.356,0,0.713-0.043,1.059-0.128l56.788-13.944c0.413-0.102,0.802-0.276,1.173-0.481
	c0.227,3.236,0.462,6.49,0.705,9.742c1.201,16.077,2.418,29.823,3.634,41.083l-22.849,18.666c-1.024,0.837-1.739,2.305-1.739,3.569
	v7.933c0,1.834,1.408,3.271,3.206,3.271c0.301,0,0.603-0.041,0.898-0.121l24.226-6.582C90.06,184.883,92.049,186,94.289,186h0.493
	c2.237,0,4.223-1.112,6.447-12.149l23.915,6.523c0.297,0.081,0.604,0.122,0.916,0.122c1.896,0,3.439-1.467,3.439-3.271v-7.933
	c0-1.614-1.172-3.002-1.868-3.572l-22.672-18.448c1.223-11.3,2.448-25.118,3.657-41.298c0.224-3.001,0.441-6.002,0.652-8.99
	l55.442,13.674c0.347,0.085,0.693,0.128,1.031,0.128c2.178,0,3.758-1.715,3.758-4.079v-4.913
	C169.5,100.208,168.902,97.894,167.222,96.598z M92.5,20.125c0,0.646-0.251,0.66-0.44,0.692c-2.839,0.476-5.706,3.285-7.384,7.388
	c-0.541,1.322-1.569-3.228-1.654-3.971c-0.61-5.281,4.288-15.18,9.096-15.872C92.286,8.339,92.5,8.458,92.5,9.083V20.125z
	 M106.614,24.234c-0.077,1.006-1.147,5.293-1.688,3.971c-1.704-4.166-4.98-7.03-7.867-7.407c-0.145-0.019-0.559-0.089-0.559-0.568
	V9.167c0-0.646,0.551-0.821,0.763-0.783C102.031,9.231,107.016,18.981,106.614,24.234z"/>
<g>
</g>
<g>
</g>
<g>
</g>
<g>
</g>
<g>
</g>
<g>
</g>
<g>
</g>
<g>
</g>
<g>
</g>
<g>
</g>
<g>
</g>
<g>
</g>
<g>
</g>
<g>
</g>
<g>
</g>
</svg>
