<?xml version="1.0" encoding="iso-8859-1"?>
<!-- Generator: Adobe Illustrator 17.1.0, SVG Export Plug-In . SVG Version: 6.00 Build 0)  -->
<!DOCTYPE svg PUBLIC "-//W3C//DTD SVG 1.1//EN" "http://www.w3.org/Graphics/SVG/1.1/DTD/svg11.dtd">
<svg version="1.1" id="Capa_1" xmlns="http://www.w3.org/2000/svg" xmlns:xlink="http://www.w3.org/1999/xlink" x="0px" y="0px"
	 viewBox="0 0 186.133 186.133" style="enable-background:new 0 0 186.133 186.133;" xml:space="preserve">
<g>
	<path d="M166.393,92.282l-5.858-3.163c0.019-0.204,0.031-0.41,0.031-0.618v-11c0-3.584-2.916-6.5-6.5-6.5h-6
		c-3.584,0-6.5,2.916-6.5,6.5v1.375l-4-2.16V66.5c0-3.584-2.916-6.5-6.5-6.5h-6c-3.569,0-6.474,2.892-6.498,6.456l-6.813-3.679
		l0.729-35.18c0-9.106-8.799-27.155-19.362-27.589L92.567,0v0.008c-10,0.424-20.165,17.703-20.164,27.642l0.802,35.76l-5.64,3.046
		C67.54,62.892,64.636,60,61.067,60h-6c-3.584,0-6.5,2.916-6.5,6.5v10.215l-4,2.16V77.5c0-3.584-2.916-6.5-6.5-6.5h-6
		c-3.584,0-6.5,2.916-6.5,6.5v11c0,0.209,0.012,0.414,0.031,0.618l-5.86,3.164c-1.808,0.979-3.171,3.192-3.171,5.15v8.913
		c0,2.287,1.754,4.079,3.994,4.079c0.347,0,0.699-0.043,1.043-0.128l52.365-12.831l1.374,61.228l-15.35,12.667
		c-0.946,0.774-1.426,1.975-1.426,3.569v7.933c0,1.865,1.328,3.271,3.089,3.271c0.295,0,0.596-0.042,0.899-0.124l30.512-8.408
		l30.518,8.41c0.297,0.081,0.598,0.123,0.894,0.123c1.761,0,3.089-1.406,3.089-3.271v-7.933c0-1.594-0.48-2.795-1.417-3.562
		l-16.363-13.503l1.257-60.674l53.484,13.105c0.347,0.085,0.699,0.128,1.046,0.128c2.239,0,3.994-1.792,3.994-4.079v-8.913
		C169.567,95.475,168.203,93.261,166.393,92.282z M93.165,9.472c-0.054,0-0.109,0.006-0.163,0.008
		c-0.054-0.001-0.108-0.008-0.162-0.008H93.165z M106.979,31.074c0,0-0.21,0.522-0.336,0.065
		c-1.638-5.964-7.523-13.721-13.642-13.859c-6.128,0.138-12.63,7.9-14.457,13.863c-0.15,0.491-0.393-0.131-0.393-0.131l-0.115-4.522
		c0-5.883,7.745-16.805,14.964-16.967c7.207,0.163,14.093,11.15,14.093,17.033L106.979,31.074z"/>
	<path d="M93.002,17.28C93.056,17.279,92.948,17.279,93.002,17.28L93.002,17.28z"/>
</g>
<g>
</g>
<g>
</g>
<g>
</g>
<g>
</g>
<g>
</g>
<g>
</g>
<g>
</g>
<g>
</g>
<g>
</g>
<g>
</g>
<g>
</g>
<g>
</g>
<g>
</g>
<g>
</g>
<g>
</g>
</svg>
