<?xml version="1.0" encoding="iso-8859-1"?>
<!-- Generator: Adobe Illustrator 17.1.0, SVG Export Plug-In . SVG Version: 6.00 Build 0)  -->
<!DOCTYPE svg PUBLIC "-//W3C//DTD SVG 1.1//EN" "http://www.w3.org/Graphics/SVG/1.1/DTD/svg11.dtd">
<svg version="1.1" id="Capa_1" xmlns="http://www.w3.org/2000/svg" xmlns:xlink="http://www.w3.org/1999/xlink" x="0px" y="0px"
	 viewBox="0 0 189.391 189.391" style="enable-background:new 0 0 189.391 189.391;" xml:space="preserve">
<g>
	<path d="M94.631,17.869C94.685,17.868,94.577,17.868,94.631,17.869L94.631,17.869z"/>
	<path d="M168.399,98.825l-6.204-4.372V83.5c0-3.584-2.916-6.5-6.5-6.5h-6c-2.822,0-5.223,1.811-6.12,4.33l-4.38-3.087V67.5
		c0-3.584-2.916-6.5-6.5-6.5h-6c-2.76,0-5.117,1.732-6.058,4.164l-7.819-5.511l1.332-21.904l-0.036-0.152
		c0-8.583-8.292-36.952-19.362-37.585L94.195,0v0.011c-11,0.63-20.165,28.887-20.165,37.585l1.424,22.845l-6.7,4.722
		C67.813,62.732,65.455,61,62.695,61h-6c-3.584,0-6.5,2.916-6.5,6.5v10.743l-4.38,3.087c-0.896-2.519-3.297-4.33-6.12-4.33h-6
		c-3.584,0-6.5,2.916-6.5,6.5v10.953l-6.206,4.373c-1.389,0.98-2.794,3.08-2.794,5.196v8.913c0,2.287,1.754,4.079,3.994,4.079
		c0.347,0,0.699-0.043,1.043-0.128l7.963-1.951v4.792c0,3.584,2.691,6.5,6,6.5s6-2.916,6-6.5v-7.733l11-2.695v0.428
		c0,3.584,2.691,6.5,6,6.5s6-2.916,6-6.5v-3.368l11.938-2.925l3.259,52.296l-17.844,20.007c-0.673,0.755-1.352,2.103-1.352,3.41
		v7.127c0,1.748,1.368,3.117,3.115,3.117c0.58,0,1.158-0.157,1.674-0.456l27.711-16.094l27.714,16.095
		c0.514,0.297,1.091,0.454,1.672,0.454c1.746,0,3.114-1.369,3.114-3.117v-7.127c0-1.308-0.68-2.656-1.354-3.411l-18.801-21.08
		l3.131-51.488l13.024,3.191v3.368c0,3.584,2.691,6.5,6,6.5s6-2.916,6-6.5v-0.428l11,2.695v7.733c0,3.584,2.691,6.5,6,6.5
		s6-2.916,6-6.5v-4.792l7.961,1.951c0.347,0.085,0.698,0.128,1.046,0.128c2.239,0,3.993-1.792,3.993-4.079v-8.913
		C171.195,101.907,169.79,99.807,168.399,98.825z M94.794,10.061c-0.054,0-0.109,0.006-0.163,0.008
		c-0.054-0.001-0.108-0.008-0.162-0.008H94.794z M108.608,37.663c0,0-0.21,0.522-0.336,0.065
		c-1.638-5.964-7.523-19.721-13.642-19.859c-6.128,0.138-12.63,13.9-14.457,19.863c-0.15,0.491-0.393-0.131-0.393-0.131
		l-0.115-4.522c0-5.883,7.745-22.805,14.964-22.967c7.207,0.163,14.093,17.15,14.093,23.033L108.608,37.663z"/>
</g>
<g>
</g>
<g>
</g>
<g>
</g>
<g>
</g>
<g>
</g>
<g>
</g>
<g>
</g>
<g>
</g>
<g>
</g>
<g>
</g>
<g>
</g>
<g>
</g>
<g>
</g>
<g>
</g>
<g>
</g>
</svg>
