<?xml version="1.0" encoding="iso-8859-1"?>
<!-- Generator: Adobe Illustrator 17.1.0, SVG Export Plug-In . SVG Version: 6.00 Build 0)  -->
<!DOCTYPE svg PUBLIC "-//W3C//DTD SVG 1.1//EN" "http://www.w3.org/Graphics/SVG/1.1/DTD/svg11.dtd">
<svg version="1.1" id="Capa_1" xmlns="http://www.w3.org/2000/svg" xmlns:xlink="http://www.w3.org/1999/xlink" x="0px" y="0px"
	 viewBox="0 0 185.891 185.891" style="enable-background:new 0 0 185.891 185.891;" xml:space="preserve">
<path d="M173.788,112.75l-64.019-63.057c0.72-13.242,1.126-22.05,1.134-22.232l0.005-0.113C110.908,17.742,103.511,0,92.969,0
	h-0.475C81.951,0,74.553,17.742,74.553,27.348l0.003,0.113c0.008,0.184,0.419,9.169,1.153,22.634l-63.607,62.656
	c-1.257,1.24-2.156,3.42-2.156,5.184v16.29c0,2.398,1.657,3.653,3.307,3.653c0.767,0,1.54-0.266,2.249-0.769l62.806-44.47
	c0.249,3.638,0.507,7.305,0.776,10.968c1.302,17.722,2.623,32.557,3.939,44.272l-21.724,24.355
	c-0.674,0.755-1.354,2.103-1.354,3.411v7.128c0,1.748,1.368,3.117,3.114,3.117c0.001,0,0.001,0,0.001,0
	c0.578,0,1.155-0.156,1.674-0.455l21.998-12.776c1.922,8.452,3.69,9.34,5.761,9.34h0.475c2.047,0,3.797-0.872,5.693-9.048
	l21.502,12.486c0.512,0.296,1.089,0.452,1.667,0.452c1.747,0,3.115-1.369,3.115-3.117v-7.128c0-1.309-0.68-2.656-1.354-3.41
	l-21.215-23.786c1.338-11.801,2.68-26.835,4.003-44.842c0.276-3.761,0.542-7.525,0.797-11.258l63.218,44.76
	c0.71,0.503,1.477,0.769,2.244,0.769c1.65,0,3.307-1.255,3.307-3.653v-16.29C175.945,116.171,175.046,113.991,173.788,112.75z
	 M104.09,31.851c-0.061,1.218-0.953,1.538-1.509,0.1C100.562,26.73,96.985,22,92.907,22h-0.351c-4.007,0-7.53,4.596-9.567,9.717
	c-0.607,1.525-1.565,1.097-1.629-0.177c-0.146-2.906-0.222-4.485-0.222-4.485C81.137,20.748,86.249,9,92.556,9h0.351
	c6.306,0,11.419,11.81,11.419,18.116C104.325,27.116,104.244,28.781,104.09,31.851z"/>
<g>
</g>
<g>
</g>
<g>
</g>
<g>
</g>
<g>
</g>
<g>
</g>
<g>
</g>
<g>
</g>
<g>
</g>
<g>
</g>
<g>
</g>
<g>
</g>
<g>
</g>
<g>
</g>
<g>
</g>
</svg>
