<?xml version="1.0" encoding="iso-8859-1"?>
<!-- Generator: Adobe Illustrator 17.1.0, SVG Export Plug-In . SVG Version: 6.00 Build 0)  -->
<!DOCTYPE svg PUBLIC "-//W3C//DTD SVG 1.1//EN" "http://www.w3.org/Graphics/SVG/1.1/DTD/svg11.dtd">
<svg version="1.1" id="Capa_1" xmlns="http://www.w3.org/2000/svg" xmlns:xlink="http://www.w3.org/1999/xlink" x="0px" y="0px"
	 viewBox="0 0 194 194" style="enable-background:new 0 0 194 194;" xml:space="preserve">
<path d="M189.547,59.563l-4.936,0.113c0.079-0.607,0.126-1.231,0.126-1.873c0-0.977-0.102-1.914-0.281-2.803H185
	c1.381,0,2.5-1.119,2.5-2.5S186.381,50,185,50h-2.867c-1.291-1.497-2.969-2.395-4.83-2.395s-3.539,0.897-4.83,2.395H170
	c-1.381,0-2.5,1.119-2.5,2.5s1.119,2.5,2.5,2.5h0.15c-0.179,0.889-0.281,1.826-0.281,2.803c0,0.76,0.062,1.496,0.171,2.205
	l-9.514,0.217c0.133-0.775,0.211-1.583,0.211-2.422c0-0.977-0.102-1.914-0.281-2.803H161c1.381,0,2.5-1.119,2.5-2.5
	S162.381,50,161,50h-2.867c-1.291-1.497-2.969-2.395-4.83-2.395s-3.539,0.897-4.83,2.395H146c-1.381,0-2.5,1.119-2.5,2.5
	s1.119,2.5,2.5,2.5h0.15c-0.179,0.889-0.281,1.826-0.281,2.803c0,0.958,0.099,1.877,0.271,2.75l-9.715,0.221
	c0.201-0.937,0.312-1.933,0.312-2.971c0-0.977-0.102-1.914-0.281-2.803H137c1.381,0,2.5-1.119,2.5-2.5S138.381,50,137,50h-2.867
	c-1.291-1.497-2.969-2.395-4.83-2.395s-3.539,0.897-4.83,2.395H122c-1.381,0-2.5,1.119-2.5,2.5s1.119,2.5,2.5,2.5h0.15
	c-0.179,0.889-0.281,1.826-0.281,2.803c0,1.159,0.14,2.263,0.389,3.294l-8.472,0.193c0.971-17.017,1.524-28.885,1.534-29.098
	l0.002-0.115c0-9.861-7.646-28.076-18.54-28.076H96.29C85.396,4,77.75,22.215,77.75,32.076l0.002,0.115
	c0.01,0.214,0.562,12.071,1.533,29.077l-8.929-0.203c0.244-1.021,0.381-2.115,0.381-3.262c0-0.977-0.102-1.914-0.281-2.803H71
	c1.381,0,2.5-1.119,2.5-2.5S72.381,50,71,50h-2.867c-1.291-1.497-2.969-2.395-4.83-2.395s-3.539,0.897-4.83,2.395H56
	c-1.381,0-2.5,1.119-2.5,2.5S54.619,55,56,55h0.15c-0.179,0.889-0.281,1.826-0.281,2.803c0,1.027,0.109,2.011,0.306,2.939
	l-9.703-0.221c0.168-0.864,0.265-1.772,0.265-2.718c0-0.977-0.102-1.914-0.281-2.803H47c1.381,0,2.5-1.119,2.5-2.5S48.381,50,47,50
	h-2.867c-1.291-1.497-2.969-2.395-4.83-2.395s-3.539,0.897-4.83,2.395H32c-1.381,0-2.5,1.119-2.5,2.5S30.619,55,32,55h0.15
	c-0.179,0.889-0.281,1.826-0.281,2.803c0,0.827,0.076,1.624,0.205,2.39l-9.503-0.217c0.107-0.699,0.166-1.425,0.166-2.173
	c0-0.977-0.102-1.914-0.281-2.803H23c1.381,0,2.5-1.119,2.5-2.5S24.381,50,23,50h-2.867c-1.291-1.497-2.969-2.395-4.83-2.395
	s-3.539,0.897-4.83,2.395H8c-1.381,0-2.5,1.119-2.5,2.5S6.619,55,8,55h0.15c-0.179,0.889-0.281,1.826-0.281,2.803
	c0,0.631,0.046,1.244,0.123,1.841l-3.434-0.078l-0.104-0.002C1.998,59.563,0,61.563,0,64.019v11.503c0,2.372,1.715,4.425,3.99,4.774
	l77.203,11.818c0.393,5.867,0.815,11.87,1.262,17.86c1.194,15.975,2.403,29.649,3.611,40.87l-23.2,18.878
	c-0.693,0.565-1.865,1.954-1.865,3.569v7.933c0,1.804,1.543,3.271,3.439,3.271h0c0.312,0,0.62-0.041,0.917-0.122l24.457-6.671
	C92.05,188.875,94.044,190,96.29,190h0.493c2.23,0,4.212-1.104,6.43-12.06l23.683,6.434c0.296,0.081,0.599,0.122,0.899,0.122
	c1.798,0,3.206-1.438,3.206-3.271v-7.933c0-1.265-0.715-2.732-1.74-3.569l-22.323-18.237c1.231-11.339,2.464-25.229,3.68-41.511
	c0.446-5.968,0.866-11.947,1.258-17.793c0.032,0.001,0.062,0.01,0.095,0.01c0.214,0,0.436-0.016,0.667-0.051l77.374-11.846
	c2.274-0.349,3.989-2.401,3.989-4.773V64.019C194,61.563,192.002,59.563,189.547,59.563z M95,24.125c0,0.646-0.501,0.66-0.69,0.692
	c-2.839,0.476-5.956,3.285-7.634,7.388c-0.541,1.323-1.569-3.228-1.654-3.97c-0.61-5.281,4.538-15.18,9.346-15.872
	C94.536,12.339,95,12.458,95,13.083V24.125z M108.614,28.234c-0.077,1.006-1.147,5.293-1.688,3.97
	c-1.704-4.166-4.73-7.03-7.617-7.407C99.164,24.778,99,24.708,99,24.229V13.167c0-0.646,0.301-0.821,0.513-0.783
	C104.281,13.231,109.016,22.981,108.614,28.234z"/>
<g>
</g>
<g>
</g>
<g>
</g>
<g>
</g>
<g>
</g>
<g>
</g>
<g>
</g>
<g>
</g>
<g>
</g>
<g>
</g>
<g>
</g>
<g>
</g>
<g>
</g>
<g>
</g>
<g>
</g>
</svg>
